<?xml version="1.0" encoding="UTF-8"?>
<svg version="1.1" xmlns="http://www.w3.org/2000/svg" width="512" height="512">
<path d="M0 0 C1.09625198 0.27496811 2.19250397 0.54993622 3.32197571 0.83323669 C6.90582278 1.73496003 10.48558448 2.65186607 14.06542969 3.56933594 C16.58423903 4.20695884 19.10326573 4.84372367 21.62249756 5.47967529 C26.88917163 6.81148526 32.15408102 8.14994166 37.41748047 9.49462891 C44.11987799 11.20691231 50.82547026 12.9063098 57.53221512 14.60147476 C63.98200691 16.23178815 70.42994125 17.86940678 76.87792969 19.50683594 C78.08631752 19.81311165 79.29470535 20.11938736 80.539711 20.43494415 C102.42333835 25.98898133 102.42333835 25.98898133 113.19726562 29.04101562 C113.88217197 29.2283086 114.56707832 29.41560158 115.27273941 29.6085701 C118.64162898 30.58968344 121.13699242 31.40527311 123.23730469 34.30371094 C124.35008728 37.95999659 124.55678832 39.61910315 122.92480469 43.11621094 C121.23730469 45.30371094 121.23730469 45.30371094 119.23730469 46.30371094 C113.39250979 46.68703641 108.3817812 45.57325434 102.78320312 44.11987305 C101.85994736 43.88727783 100.93669159 43.65468262 99.98545837 43.41503906 C96.93713167 42.64495561 93.89195984 41.86309092 90.84667969 41.08105469 C88.70194096 40.53661199 86.55701973 39.99288773 84.41192627 39.44984436 C78.7519846 38.01485042 73.09466285 36.56977682 67.43780518 35.12268066 C61.78012668 33.67736213 56.11990407 32.24208293 50.45996094 30.80566406 C15.93935837 22.03604622 15.93935837 22.03604622 4.39550781 18.96826172 C3.14505676 18.63742081 1.89460571 18.3065799 0.60626221 17.9657135 C-1.55387591 17.39144253 -3.71236415 16.81089671 -5.86846924 16.22166443 C-7.2522879 15.85344322 -7.2522879 15.85344322 -8.6640625 15.4777832 C-9.79772247 15.1692617 -9.79772247 15.1692617 -10.95428467 14.85450745 C-18.95427507 13.28551796 -25.41612109 13.20555103 -33.29516602 15.34228516 C-34.1929971 15.5708061 -35.09082819 15.79932705 -36.01586628 16.03477287 C-37.94257725 16.52608961 -39.8675635 17.02421235 -41.79089737 17.52858734 C-45.77573369 18.56793817 -49.77272691 19.55574506 -53.76979637 20.54680157 C-59.26455096 21.91226144 -64.75335074 23.30135797 -70.24316406 24.68652344 C-72.68129481 25.30073467 -75.11944638 25.91486323 -77.55761719 26.52891541 C-83.36140712 27.99106012 -89.16482625 29.45466743 -94.9680208 30.91917282 C-99.64119387 32.09849698 -104.31453121 33.27716825 -108.98794556 34.45553589 C-144.58950924 43.43284439 -180.17814267 52.45874749 -215.73022461 61.63037109 C-216.4192282 61.80802631 -217.10823179 61.98568153 -217.81811428 62.16872025 C-221.06042347 63.00486443 -224.30226872 63.84269186 -227.54338074 64.68347168 C-233.01488448 66.09952683 -238.48878445 67.48983298 -243.98779297 68.79541016 C-245.40020012 69.13396278 -245.40020012 69.13396278 -246.84114075 69.47935486 C-248.54518757 69.88485964 -250.25134696 70.28164614 -251.96000671 70.66725159 C-255.75613188 71.57229722 -258.31819602 72.20052849 -260.76269531 75.30371094 C-261.36227667 79.87352902 -261.36227667 79.87352902 -259.5758667 83.91972351 C-257.24828773 85.69635646 -255.21673103 86.22843804 -252.37695312 86.94750977 C-251.25303162 87.23753372 -250.12911011 87.52755768 -248.97113037 87.82637024 C-247.73187805 88.13471298 -246.49262573 88.44305573 -245.21582031 88.76074219 C-243.89074268 89.09836412 -242.56589913 89.43690586 -241.24127197 89.77629089 C-237.60292899 90.70562396 -233.96137986 91.62179323 -230.31918335 92.53588867 C-226.41624387 93.51788496 -222.51642632 94.51213371 -218.61621094 95.50488281 C-210.99890213 97.44162877 -203.3787707 99.36702827 -195.75746155 101.28796577 C-189.52087127 102.8599332 -183.28505079 104.43491645 -177.04980469 106.01220703 C-176.15975172 106.237353 -175.26969875 106.46249897 -174.35267448 106.69446754 C-172.54700087 107.15125033 -170.7413311 107.60804828 -168.93566513 108.0648613 C-164.37888419 109.21763917 -159.82203097 110.37013109 -155.26513672 111.52246094 C-153.90502818 111.86640176 -153.90502818 111.86640176 -152.5174427 112.21729088 C-147.01376302 113.60881067 -141.50968542 114.99874485 -136.00530434 116.38748741 C-108.59923803 123.30209283 -81.21446747 130.29637205 -53.84915733 137.37057209 C-51.05238361 138.09342087 -48.255382 138.81538554 -45.45836258 139.53728294 C-43.56557688 140.02631101 -41.67320792 140.5169512 -39.78085327 141.00764465 C-38.0951976 141.44290718 -38.0951976 141.44290718 -36.37548828 141.88696289 C-35.40545868 142.13815384 -34.43542908 142.38934479 -33.43600464 142.64814758 C-23.30612105 145.13225236 -15.61238413 144.05519696 -5.61816406 141.47167969 C-4.41228134 141.16808533 -3.20639862 140.86449097 -1.963974 140.55169678 C1.34894242 139.71567537 4.65951119 138.8712895 7.9693222 138.02311325 C11.48484399 137.12432454 15.0030547 136.23618519 18.52099609 135.34692383 C24.56441227 133.81790332 30.60613199 132.28232583 36.64697266 130.74316406 C45.66823056 128.44521587 54.6943498 126.16675986 63.72146416 123.89194298 C70.37641229 122.21455045 77.03063594 120.53428473 83.68487167 118.85406876 C85.29165867 118.44840072 86.89847236 118.04283836 88.50531387 117.63738632 C93.1297899 116.47045689 97.75372505 115.30142499 102.3769207 114.12943268 C103.76682878 113.77739118 105.15689728 113.42598211 106.54716682 113.07537079 C120.15533851 109.64256723 133.68200274 105.95321531 147.23730469 102.30371094 C99.05730469 96.36371094 50.87730469 90.42371094 1.23730469 84.30371094 C0.57730469 85.95371094 -0.08269531 87.60371094 -0.76269531 89.30371094 C-5.78859888 95.08467984 -11.55361956 98.61830623 -19.13769531 99.61621094 C-26.46058689 99.98235552 -32.88125731 98.16840514 -38.80566406 93.79589844 C-44.07547657 88.96430061 -47.27731136 83.48463182 -48.10644531 76.34277344 C-48.37447471 67.47546751 -46.76283995 60.48005705 -40.60253906 53.91308594 C-33.85608167 48.01172618 -27.02798237 46.46695483 -18.16894531 46.82324219 C-10.54614627 47.89847646 -4.94199551 51.3300328 -0.01660156 57.16699219 C1.19733085 59.23559353 1.98971087 61.1908579 2.81567383 63.43725586 C3.08279678 64.16047531 3.34991974 64.88369476 3.62513733 65.62882996 C3.92816017 66.45789604 3.92816017 66.45789604 4.23730469 67.30371094 C35.06597218 71.47775663 65.936364 75.3044322 96.81159592 79.11592579 C106.75195328 80.34318672 116.69133391 81.57784676 126.62960029 82.82192975 C133.69093294 83.70524351 140.75327915 84.58013365 147.81642175 85.44885463 C152.00885561 85.96473219 156.20076098 86.48424074 160.39159393 87.01297951 C164.31418968 87.50771611 168.23794239 87.99196134 172.16280556 88.46836472 C173.59428392 88.64393296 175.02531381 88.82320706 176.45580864 89.00661659 C187.316708 90.39588086 196.61548015 90.24017196 207.17480469 87.42871094 C208.44195312 87.10128906 209.70910156 86.77386719 211.01464844 86.43652344 C214.73909229 85.13556517 214.73909229 85.13556517 217.23730469 82.30371094 C217.82367118 77.76347083 217.82367118 77.76347083 216.11459351 73.69981384 C213.49241469 71.74975084 210.99890824 71.23533808 207.82568359 70.46606445 C206.85683983 70.22632904 206.85683983 70.22632904 205.86842346 69.98175049 C204.46835938 69.63666274 203.06709684 69.29640919 201.664814 68.96045113 C199.44262024 68.42752172 197.22416074 67.88103833 195.00619507 67.33079529 C189.49600265 65.96652658 183.98073972 64.62329683 178.4644165 63.28405762 C173.80367693 62.15224026 169.14569486 61.01021623 164.49106979 59.85349846 C162.31041827 59.31601012 160.12646526 58.79379811 157.94204712 58.27186584 C156.59707256 57.93895666 155.25228481 57.6052915 153.90771484 57.27075195 C152.73761871 56.98667984 151.56752258 56.70260773 150.36196899 56.40992737 C146.96621572 55.20773804 144.84770855 53.76609795 142.23730469 51.30371094 C141.3712465 48.54953832 141.63337585 46.11054212 142.23730469 43.30371094 C143.73730469 40.80371094 143.73730469 40.80371094 146.23730469 39.30371094 C154.13525654 38.53717492 161.55647234 40.85923859 169.13964844 42.81152344 C170.58630474 43.1786307 172.0330481 43.54539508 173.47987366 43.91183472 C176.50324133 44.68026469 179.52451963 45.45636044 182.54467773 46.23730469 C186.3907755 47.2306287 190.24262677 48.19920516 194.09662533 49.16134834 C197.08453898 49.91122676 200.06818843 50.67709001 203.05090523 51.44735336 C204.46828886 51.81083069 205.88708439 52.16885261 207.30732536 52.52099991 C217.13803226 54.96824298 226.19407568 57.63595828 232.29980469 66.24121094 C235.66375558 73.13263811 235.42952816 81.50519659 233.60839844 88.83496094 C231.31191916 94.18997988 227.34969943 97.6657747 222.23730469 100.30371094 C215.86355882 102.82887437 209.11920622 105.30371094 202.23730469 105.30371094 C202.20197055 109.05539112 202.24378108 112.80237005 202.29980469 116.55371094 C202.28884766 117.6171875 202.27789062 118.68066406 202.26660156 119.77636719 C202.16048318 125.27973477 202.16048318 125.27973477 204.74365234 129.81640625 C206.84005492 131.01941514 206.84005492 131.01941514 210.23730469 132.30371094 C215.52295483 136.89043213 218.64268122 142.59627516 219.51855469 149.53027344 C219.77103621 155.65295043 218.31271921 161.02991191 215.02636719 166.21386719 C213.90713431 169.17817209 214.76391457 170.55458209 215.98730469 173.42871094 C222.12492858 189.18747499 222.35534202 207.34153392 216.10058594 223.18261719 C212.3727822 231.0733311 208.198683 236.47045471 200.23730469 240.30371094 C199.24730469 240.30371094 198.25730469 240.30371094 197.23730469 240.30371094 C197.40230469 241.21121094 197.56730469 242.11871094 197.73730469 243.05371094 C200.35719819 261.92453804 195.53024253 280.02367464 184.23730469 295.30371094 C181.6676489 298.40082239 179.0097626 301.38722923 176.23730469 304.30371094 C178.18245316 305.29569353 180.11558182 306.25301399 182.13183594 307.09277344 C188.59565793 309.90999932 193.20340853 314.17100704 196.33886719 320.54199219 C199.07661346 327.94925897 199.08479762 334.66005556 196.33496094 342.06542969 C193.05319992 348.75741924 188.33058883 352.82179916 181.54589844 355.70996094 C179.23730469 356.30371094 179.23730469 356.30371094 173.23730469 356.30371094 C173.23730469 367.52371094 173.23730469 378.74371094 173.23730469 390.30371094 C176.20730469 390.63371094 179.17730469 390.96371094 182.23730469 391.30371094 C189.68139697 394.29237613 194.05200455 400.12540955 197.23730469 407.30371094 C199.44375163 416.27749209 197.78754345 423.56755324 193.48730469 431.55371094 C189.24821219 436.73482399 184.6779577 439.50222733 178.23730469 441.30371094 C175.52423059 441.46572191 172.92174784 441.53824147 170.21386719 441.49902344 C169.46769135 441.49619354 168.7215155 441.49336365 167.95272827 441.490448 C165.5890848 441.47932781 163.22583201 441.45423915 160.86230469 441.42871094 C159.25163311 441.41867056 157.64095554 441.40954656 156.03027344 441.40136719 C152.09913525 441.37941533 148.16828602 441.34494279 144.23730469 441.30371094 C144.25825195 441.99932129 144.27919922 442.69493164 144.30078125 443.41162109 C144.38427448 446.58383552 144.43606997 449.75581825 144.48730469 452.92871094 C144.52082031 454.023125 144.55433594 455.11753906 144.58886719 456.24511719 C144.66549026 462.56652027 144.64358156 466.58326103 140.23730469 471.30371094 C136.58122391 473.44217328 134.09554765 474.28781755 129.86230469 474.36621094 C119.78483474 471.41246975 111.33303821 462.77569137 103.23730469 456.30371094 C100.15795233 457.73171543 97.56896588 459.44268383 94.86621094 461.49121094 C94.04443359 462.10738281 93.22265625 462.72355469 92.37597656 463.35839844 C90.66101535 464.65339568 88.9474675 465.95026679 87.23535156 467.24902344 C86.41228516 467.86519531 85.58921875 468.48136719 84.74121094 469.11621094 C83.99685791 469.67953125 83.25250488 470.24285156 82.4855957 470.82324219 C77.91605264 473.83222353 74.48148993 474.6990048 69.16699219 473.84667969 C65.4947674 472.81340186 63.11883618 470.70724735 61.11669922 467.51953125 C60.0258767 464.77097346 60.01056562 462.6171829 60.04199219 459.66308594 C60.0484375 458.59316406 60.05488281 457.52324219 60.06152344 456.42089844 C60.07828125 455.30972656 60.09503906 454.19855469 60.11230469 453.05371094 C60.12132812 451.92707031 60.13035156 450.80042969 60.13964844 449.63964844 C60.16319811 446.86078729 60.19608789 444.08235704 60.23730469 441.30371094 C59.45854634 441.30739811 58.679788 441.31108528 57.87743092 441.31488419 C38.93211038 441.40320579 19.98683091 441.4694062 1.04134846 441.51095963 C-8.12054015 441.53158847 -17.28229137 441.5597152 -26.4440918 441.60546875 C-34.42914334 441.64532669 -42.41409539 441.67114141 -50.39924365 441.68006492 C-54.6277093 441.68528146 -58.8558903 441.69754874 -63.08426476 441.72663116 C-67.06432835 441.75378391 -71.04399007 441.76215631 -75.0241375 441.75614166 C-76.48464899 441.75724197 -77.94517393 441.76519703 -79.40560532 441.78053284 C-81.40060954 441.80045428 -83.39582947 441.79326072 -85.39091492 441.784729 C-87.06535187 441.79025976 -87.06535187 441.79025976 -88.77361584 441.79590225 C-92.48233517 441.18521275 -94.15056766 439.96946891 -96.76269531 437.30371094 C-97.38769531 433.86621094 -97.38769531 433.86621094 -96.76269531 430.30371094 C-94.25898641 427.16349788 -92.75825059 425.50862505 -88.77361584 424.68847179 C-87.09917888 424.69538524 -87.09917888 424.69538524 -85.39091492 424.70243835 C-84.10509018 424.69556503 -82.81926544 424.68869171 -81.49447632 424.68161011 C-80.07695946 424.69930367 -78.65944853 424.71747768 -77.24194336 424.73608398 C-75.74368843 424.73749492 -74.24543004 424.73670159 -72.74717712 424.73387146 C-68.68531565 424.73243763 -64.62419335 424.76182127 -60.56250358 424.79674125 C-56.31578052 424.82801068 -52.06904027 424.83093594 -47.82221985 424.83686829 C-39.78279846 424.85240505 -31.74371728 424.8934311 -23.70444566 424.94361573 C-14.55098487 424.99951452 -5.39750778 425.02699702 3.75608122 425.05209291 C22.5833539 425.10434723 41.41028947 425.19329399 60.23730469 425.30371094 C60.23730469 419.03371094 60.23730469 412.76371094 60.23730469 406.30371094 C57.29035675 406.31037277 54.34340881 406.31703461 51.30715942 406.32389832 C24.26170899 406.38363868 -2.78373994 406.42840324 -29.82924008 406.45690693 C-33.37639455 406.46065889 -36.92354888 406.46454187 -40.47070312 406.46850586 C-41.17685572 406.46929279 -41.88300832 406.47007972 -42.61055948 406.4708905 C-54.03341346 406.48393223 -65.456222 406.50757926 -76.87904905 406.53516933 C-88.60636319 406.56325787 -100.33365359 406.57989448 -112.06099999 406.58597642 C-118.64536567 406.58988537 -125.22962837 406.59906464 -131.81396103 406.62090111 C-138.01417109 406.64129663 -144.21423597 406.64753846 -150.41447639 406.64303398 C-152.68721494 406.6438578 -154.95995844 406.64980503 -157.23266792 406.66132736 C-160.34285989 406.67631923 -163.45250829 406.67263994 -166.56271362 406.66447449 C-167.45573995 406.67321301 -168.34876629 406.68195154 -169.26885402 406.69095486 C-179.2775878 406.62024478 -188.08949458 403.83034144 -195.76269531 397.30371094 C-203.11581503 389.40472644 -205.73471234 380.99320534 -205.76269531 370.30371094 C-205.16092631 362.19291127 -201.42219953 354.90910049 -195.64941406 349.22167969 C-186.37755713 341.61523401 -178.09899009 340.86329554 -166.44651794 340.9251709 C-164.98854436 340.92187716 -163.53057327 340.91726142 -162.07260758 340.91144323 C-158.07937005 340.89925895 -154.08634546 340.90558445 -150.0931083 340.91494823 C-145.78153904 340.92175505 -141.47000854 340.91120675 -137.15844727 340.90266418 C-129.6911652 340.89010686 -122.22394103 340.88812157 -114.75665092 340.89302063 C-103.9526351 340.89983131 -93.14870653 340.88730686 -82.3447063 340.86951345 C-64.80508472 340.84087326 -47.26547256 340.82335295 -29.72583008 340.81494141 C-28.67650325 340.81443423 -27.62717642 340.81392705 -26.54605181 340.8134045 C-18.03146366 340.80937235 -9.5168753 340.80587836 -1.00228691 340.80240726 C6.44207903 340.79934976 13.88644484 340.79607757 21.33081055 340.79248047 C22.37916038 340.79197785 23.4275102 340.79147524 24.50762821 340.79095739 C41.98357513 340.78221549 59.45948962 340.76178472 76.93541473 340.73299837 C87.71343908 340.7158137 98.49137173 340.70923566 109.26940798 340.71630442 C116.65190807 340.72048125 124.03435031 340.71414205 131.41683692 340.69950569 C135.67694338 340.69144205 139.93690637 340.68834622 144.19701195 340.69832802 C148.09723025 340.70739042 151.99718181 340.702699 155.89737725 340.68711358 C157.30774921 340.68392486 158.7181437 340.68580277 160.12849946 340.69327897 C170.11062517 340.81822154 170.11062517 340.81822154 179.23730469 337.30371094 C181.51175461 334.65018603 181.23609053 333.2806419 181.04980469 329.74121094 C180.1231776 325.80701594 180.1231776 325.80701594 177.23730469 323.30371094 C174.03664342 322.23682385 171.75611909 322.17622431 168.39154243 322.17228317 C167.16394774 322.16844203 165.93635304 322.16460088 164.6715585 322.16064334 C163.30196383 322.16142363 161.93236921 322.16230243 160.56277466 322.16326904 C159.11339516 322.16068608 157.66401638 322.15767311 156.21463859 322.15426564 C152.2217555 322.14618371 148.22889037 322.1444054 144.23600006 322.14366817 C139.93310055 322.14181958 135.6302104 322.13427302 131.32731628 322.12753296 C121.91163337 322.11393854 112.49595471 322.10792261 103.08026361 322.1035223 C97.1997166 322.10076058 91.31917124 322.09652324 85.43862534 322.09201813 C69.15508947 322.0798218 52.87155493 322.06952465 36.5880146 322.06614304 C35.5453235 322.06592347 34.5026324 322.0657039 33.4283446 322.06547768 C32.38315323 322.06525941 31.33796186 322.06504113 30.26109803 322.06481624 C28.14314087 322.06437277 26.02518372 322.06392621 23.90722656 322.06347656 C22.85664609 322.06325513 21.80606561 322.0630337 20.72364937 322.06280556 C3.71593824 322.05886102 -13.29172996 322.04141912 -30.29942451 322.01811704 C-47.76392562 321.99438255 -65.22840522 321.98194015 -82.69292271 321.98077512 C-92.49721877 321.9798593 -102.30145895 321.97413089 -112.10573959 321.95595551 C-120.45839802 321.9405259 -128.81098332 321.93545074 -137.1636533 321.94369361 C-141.42245015 321.9475906 -145.68109988 321.94671737 -149.93987846 321.93263626 C-153.84615063 321.91983941 -157.752166 321.92114517 -161.6584381 321.93322697 C-163.06436024 321.93517407 -164.47030094 321.93215168 -165.87619708 321.92338261 C-182.43562107 321.82671633 -197.35303691 324.93087677 -209.70019531 336.61621094 C-219.59922652 347.33109637 -225.17525367 360.85495441 -224.97753906 375.46386719 C-223.86106877 390.22157452 -217.63472686 403.49510783 -206.48144531 413.31152344 C-197.26694907 420.22239562 -186.28088931 424.38959859 -174.75073242 424.46142578 C-173.56277573 424.47168793 -172.37481903 424.48195007 -171.15086365 424.49252319 C-169.87679153 424.49982452 -168.60271942 424.50712585 -167.29003906 424.51464844 C-165.28074306 424.53552676 -163.27144706 424.55642235 -161.26216221 424.57834816 C-156.31636157 424.63143591 -151.37056073 424.67581018 -146.42456055 424.70507812 C-143.64459742 424.72196674 -140.86491324 424.74664225 -138.08509827 424.77993774 C-135.46870701 424.81095339 -132.85214703 424.83033578 -130.23558044 424.83700562 C-129.05077591 424.85357208 -127.86597137 424.87013855 -126.64526367 424.88720703 C-125.08236855 424.89933731 -125.08236855 424.89933731 -123.48789978 424.91171265 C-120.3889725 425.3574679 -119.0176725 426.17043249 -116.76269531 428.30371094 C-115.97753906 430.17089844 -115.97753906 430.17089844 -115.70019531 432.17871094 C-115.58546875 432.83613281 -115.47074219 433.49355469 -115.35253906 434.17089844 C-115.85887563 436.8038486 -116.90138719 438.37840013 -118.83384705 440.22338867 C-123.3843967 442.77209102 -129.18856526 441.98504635 -134.25097656 441.93261719 C-135.59555757 441.93344751 -136.94013847 441.93591302 -138.28471375 441.93992615 C-141.1068673 441.94278309 -143.92822703 441.92811725 -146.75024414 441.90063477 C-150.31989995 441.86690653 -153.88811785 441.87282294 -157.45783997 441.89076805 C-181.9186855 441.99130064 -203.02692224 440.00729618 -221.76269531 422.30371094 C-232.89110945 410.75362707 -240.79959311 395.50133882 -241.76269531 379.30371094 C-241.81554687 378.43359375 -241.86839844 377.56347656 -241.92285156 376.66699219 C-242.49993619 357.87410594 -236.43265745 340.85948125 -223.69238281 327.06152344 C-222.0803615 325.43644932 -220.45068507 323.84927656 -218.76269531 322.30371094 C-219.48714844 322.07296875 -220.21160156 321.84222656 -220.95800781 321.60449219 C-230.24508772 318.47165057 -235.0320922 315.31659951 -239.78222656 306.58496094 C-242.79862312 299.56673149 -242.32699223 292.55051549 -239.72753906 285.50683594 C-236.92205781 279.10079777 -233.43178923 275.65133823 -227.33691406 272.24902344 C-224.76269531 271.30371094 -224.76269531 271.30371094 -216.76269531 270.30371094 C-217.09269531 259.41371094 -217.42269531 248.52371094 -217.76269531 237.30371094 C-220.73269531 236.64371094 -223.70269531 235.98371094 -226.76269531 235.30371094 C-233.65478333 231.75889497 -238.34386099 226.01970558 -241.07519531 218.86621094 C-242.68172238 210.54147975 -241.81680831 203.8218504 -237.76269531 196.30371094 C-232.47569328 189.75687339 -226.81988763 187.13403207 -218.76269531 185.30371094 C-215.29001066 184.94762653 -211.86781255 184.94972184 -208.37988281 185.01074219 C-207.54465088 185.01376343 -206.70941895 185.01678467 -205.84887695 185.01989746 C-202.77835435 185.03539669 -199.7080102 185.07727787 -196.63769531 185.11621094 C-186.30457031 185.20902344 -186.30457031 185.20902344 -175.76269531 185.30371094 C-175.76269531 164.84371094 -175.76269531 144.38371094 -175.76269531 123.30371094 C-181.20769531 122.31371094 -181.20769531 122.31371094 -186.76269531 121.30371094 C-189.39718275 120.70214394 -192.02561725 120.07315263 -194.64575195 119.41186523 C-195.35305954 119.2342868 -196.06036713 119.05670837 -196.78910828 118.87374878 C-199.08476574 118.29597406 -201.37891717 117.71250543 -203.67285156 117.12792969 C-204.46669188 116.9263859 -205.26053219 116.72484211 -206.07842827 116.51719093 C-210.27315787 115.45220229 -214.46676452 114.38292352 -218.65942383 113.30981445 C-222.95902042 112.21016609 -227.26207681 111.12475404 -231.56610966 110.04262066 C-234.90634441 109.20012038 -238.24387649 108.3472748 -241.58077812 107.49167824 C-243.1652463 107.08725514 -244.7506782 106.68658639 -246.33711433 106.28995323 C-269.26515606 100.54658679 -269.26515606 100.54658679 -275.70410156 91.17089844 C-279.08742534 85.20326461 -278.44863088 77.91666259 -277.76269531 71.30371094 C-275.56225586 64.99470189 -272.24644598 61.12137569 -266.52908325 57.63217163 C-260.23632283 54.61029435 -253.24401656 53.25744039 -246.49316406 51.59277344 C-244.73601022 51.14853398 -242.97917174 50.70304553 -241.22262573 50.25640869 C-236.46359301 49.04996727 -231.70042649 47.86065905 -226.93635941 46.67427826 C-221.90444879 45.41794137 -216.8766244 44.14546107 -211.84838867 42.87451172 C-203.41853566 40.74576383 -194.9864514 38.62608012 -186.55273438 36.51269531 C-174.14687717 33.40343662 -161.74696662 30.27094255 -149.34863281 27.13183594 C-145.39039595 26.12982319 -141.4321414 25.12788035 -137.47387695 24.12597656 C-136.50666875 23.88114029 -135.53946054 23.63630402 -134.542943 23.38404846 C-127.8063289 21.67910788 -121.06882671 19.97771084 -114.33081055 18.27832031 C-98.2020779 14.21017508 -82.07436161 10.13908409 -65.96191406 6.00683594 C-64.11382896 5.53330185 -64.11382896 5.53330185 -62.22840881 5.05020142 C-56.77634794 3.65266066 -51.32532641 2.25130398 -45.8762207 0.84228516 C-44.05194976 0.3735843 -42.22765173 -0.09501116 -40.40332031 -0.56347656 C-39.61322067 -0.76954529 -38.82312103 -0.97561401 -38.00907898 -1.18792725 C-24.85033192 -4.55444524 -13.0692118 -3.38794926 0 0 Z M-30.76269531 68.30371094 C-32.21417434 71.20666899 -32.13508557 73.07632873 -31.76269531 76.30371094 C-29.27796697 80.29433525 -27.79520567 81.99027029 -23.26269531 83.36621094 C-18.44260763 83.28013794 -16.28914597 81.8301616 -12.95019531 78.49121094 C-11.31707372 75.48282905 -11.28849281 73.69087164 -11.76269531 70.30371094 C-14.03857761 66.07889347 -14.03857761 66.07889347 -17.76269531 63.30371094 C-24.14558596 62.67588563 -26.59837505 63.00366697 -30.76269531 68.30371094 Z M177.19335938 111.49707031 C176.17870605 111.76100586 175.16405273 112.02494141 174.11865234 112.296875 C173.05952637 112.57756836 172.00040039 112.85826172 170.90917969 113.14746094 C169.44085693 113.5307959 169.44085693 113.5307959 167.94287109 113.921875 C164.28961814 114.87715853 160.63859284 115.84094484 156.98730469 116.80371094 C144.73605469 120.02121094 144.73605469 120.02121094 132.23730469 123.30371094 C132.23730469 143.76371094 132.23730469 164.22371094 132.23730469 185.30371094 C134.81731923 186.59371821 137.11920019 186.7039421 139.98730469 187.05371094 C150.22486871 188.57459074 159.38067463 192.0345766 168.23730469 197.30371094 C168.33527344 196.27632813 168.43324219 195.24894531 168.53417969 194.19042969 C169.33761004 186.52957762 170.35984588 179.74959906 173.53027344 172.63574219 C174.75363822 168.6006661 173.53836256 165.89378437 171.67480469 162.24121094 C168.82596081 155.76784786 169.22853859 148.0140028 171.73730469 141.49121094 C174.90457608 135.26978499 180.10597053 131.36937802 186.23730469 128.30371094 C186.23730469 122.36371094 186.23730469 116.42371094 186.23730469 110.30371094 C182.77693184 110.30371094 180.47764132 110.63453162 177.19335938 111.49707031 Z M-159.76269531 127.30371094 C-159.76269531 147.10371094 -159.76269531 166.90371094 -159.76269531 187.30371094 C-151.47225966 190.63215197 -151.47225966 190.63215197 -143.08691406 193.5234375 C-141.86593018 193.91248764 -140.64494629 194.30153778 -139.38696289 194.70237732 C-138.07472484 195.11641998 -136.76246843 195.53040445 -135.45019531 195.94433594 C-134.05254523 196.38829715 -132.65500564 196.83260636 -131.25756836 197.27723694 C-127.53027754 198.46222359 -123.80160489 199.64280254 -120.07263184 200.82248306 C-116.20028385 202.0483041 -112.32916428 203.27799067 -108.45800781 204.50756836 C-106.89526598 205.00389825 -105.33252183 205.50022087 -103.76977539 205.99653625 C-102.99550201 206.24244318 -102.22122864 206.48835011 -101.42349243 206.74170876 C-99.07273601 207.48808553 -96.72181239 208.23393354 -94.37084961 208.97966003 C-84.6621058 212.05998141 -74.95948449 215.15860574 -65.26269531 218.27636719 C-63.50953003 218.83966232 -63.50953003 218.83966232 -61.72094727 219.41433716 C-57.33715994 220.82309378 -52.95343986 222.23203368 -48.57128906 223.64587402 C-45.63584408 224.59277306 -42.69937984 225.53644588 -39.76269531 226.47949219 C-38.91384766 226.75447037 -38.065 227.02944855 -37.19042969 227.3127594 C-27.95425387 230.27193699 -20.23952023 231.38859664 -10.80175781 228.45214844 C-10.09709381 228.23561615 -9.39242981 228.01908386 -8.66641235 227.79598999 C-6.02737655 226.97892197 -3.39517768 226.14165355 -0.76269531 225.30371094 C1.59828214 224.55916503 3.95928686 223.8147056 6.3203125 223.0703125 C14.08228029 220.61740514 21.83575444 218.13809323 29.58854675 215.65636826 C33.42064434 214.43000471 37.25331144 213.20542364 41.0859375 211.98071289 C45.71420317 210.50168061 50.34242021 209.02249756 54.97033691 207.54237366 C64.37089659 204.53624374 73.77506455 201.54180424 83.18261719 198.55761719 C86.43598525 197.524394 89.6892856 196.49095792 92.94256592 195.4574585 C94.96637196 194.81520384 96.99049978 194.17396225 99.01495361 193.53375244 C101.7722372 192.66162273 104.52833615 191.78584707 107.28417969 190.90917969 C108.08800079 190.65608536 108.8918219 190.40299103 109.72000122 190.14222717 C113.25780919 189.23238493 113.25780919 189.23238493 116.23730469 187.30371094 C116.3311685 185.43190153 116.35474272 183.55653034 116.35083008 181.68237305 C116.35071678 179.88061867 116.35071678 179.88061867 116.3506012 178.04246521 C116.34543991 176.73519974 116.34027863 175.42793427 116.33496094 174.08105469 C116.33309667 172.73726962 116.33167281 171.39348387 116.33067322 170.04969788 C116.3268487 166.50688817 116.317019 162.96411924 116.30596924 159.42132568 C116.29575368 155.80855867 116.29117529 152.19578509 116.28613281 148.58300781 C116.27539667 141.48989214 116.25832105 134.39680419 116.23730469 127.30371094 C106.88251814 129.63456145 97.52846076 131.96832871 88.17480469 134.30371094 C87.46785336 134.48019794 86.76090202 134.65668495 86.03252792 134.83852005 C68.72578044 139.15946422 51.4239717 143.49904354 34.13574219 147.89355469 C33.0473149 148.17020399 33.0473149 148.17020399 31.93689919 148.45244217 C24.90625583 150.23981371 17.87630161 152.02987219 10.84734726 153.82387447 C8.88206745 154.32533054 6.91665852 154.82627711 4.95120239 155.32704163 C2.55864269 155.93678791 0.16635179 156.54759031 -2.22561646 157.15965271 C-3.2822348 157.42883011 -4.33885315 157.69800751 -5.42749023 157.9753418 C-6.3425383 158.20910019 -7.25758636 158.44285858 -8.20036316 158.68370056 C-19.51800829 161.42224381 -29.39590344 160.34314743 -40.57910156 157.40136719 C-41.80233124 157.09198715 -43.02556091 156.78260712 -44.28585815 156.46385193 C-47.61177729 155.62244513 -50.93301494 154.7637839 -54.25367355 153.90188599 C-57.74950938 152.9978974 -61.24956974 152.11057558 -64.74926758 151.22167969 C-70.67026004 149.71574791 -76.58880834 148.20053955 -82.50585938 146.67919922 C-93.50800547 143.85124804 -104.51943776 141.06011229 -115.53105164 138.26930237 C-116.29609418 138.07540767 -117.06113672 137.88151297 -117.84936237 137.68174267 C-119.37746528 137.29446308 -120.90557635 136.90721572 -122.43369579 136.52000141 C-127.65508702 135.1965584 -132.87526708 133.8684116 -138.0949707 132.53833008 C-140.1607764 132.01240097 -142.22660885 131.48657711 -144.29245377 130.96080208 C-146.21811517 130.4703209 -148.1434696 129.97863502 -150.06881714 129.48692322 C-151.2058609 129.19765457 -152.34290466 128.90838593 -153.5144043 128.61035156 C-154.50939438 128.35660767 -155.50438446 128.10286377 -156.52952576 127.84143066 C-158.54189825 127.26469477 -158.54189825 127.26469477 -159.76269531 127.30371094 Z M186.23730469 147.30371094 C184.79299614 150.19232803 184.86041963 152.10018795 185.23730469 155.30371094 C187.64168178 158.48597474 189.44960474 160.00203862 193.17480469 161.42871094 C196.45346552 161.54719765 196.45346552 161.54719765 199.54980469 159.24121094 C202.50682373 156.00912035 203.3278025 154.64760601 203.23730469 150.30371094 C201.6331862 146.77465027 200.49571107 145.47598186 197.23730469 143.30371094 C192.13615703 142.63834385 189.89039525 143.75499439 186.23730469 147.30371094 Z M188.23730469 176.30371094 C183.01986246 189.48706943 181.87451555 203.52577892 187.08105469 216.93261719 C188.4555908 219.75134496 190.01626236 222.08266861 192.23730469 224.30371094 C194.65599848 224.15139512 194.65599848 224.15139512 197.23730469 223.30371094 C204.17449799 214.26922664 205.08813563 202.23752356 204.23730469 191.30371094 C203.26964062 185.87854917 202.31508506 180.9203815 199.23730469 176.30371094 C196.57076564 175.9391064 196.57076564 175.9391064 193.61230469 176.11621094 C192.60941406 176.14328125 191.60652344 176.17035156 190.57324219 176.19824219 C189.41695313 176.25044922 189.41695313 176.25044922 188.23730469 176.30371094 Z M-225.20019531 207.17871094 C-226.0240828 210.2911748 -225.70518569 212.22490902 -224.76269531 215.30371094 C-222.1773228 218.36533628 -220.57827033 220.0318526 -216.76269531 221.30371094 C-215.27785866 221.39258349 -213.78932704 221.42569309 -212.30183411 221.42396545 C-211.38898148 221.42534012 -210.47612885 221.42671478 -209.53561401 221.4281311 C-208.53652008 221.42453583 -207.53742615 221.42094055 -206.50805664 221.41723633 C-204.92732109 221.41745537 -204.92732109 221.41745537 -203.31465149 221.41767883 C-199.82465571 221.41698109 -196.33471304 221.40919509 -192.84472656 221.40136719 C-190.42762786 221.39950252 -188.01052878 221.39807885 -185.59342957 221.39707947 C-179.22627726 221.39325815 -172.8591477 221.38343111 -166.49200439 221.37237549 C-159.99695137 221.36215312 -153.50189468 221.35758007 -147.00683594 221.35253906 C-134.25877935 221.34180853 -121.51073854 221.32492845 -108.76269531 221.30371094 C-117.08916364 215.75273205 -127.94746787 213.31933606 -137.38769531 210.17871094 C-138.01946812 209.96828911 -138.65124092 209.75786728 -139.30215836 209.54106903 C-158.32521113 203.25052972 -176.23902941 199.57696059 -196.45019531 199.92871094 C-197.49580627 199.94335388 -198.54141724 199.95799683 -199.61871338 199.9730835 C-202.56981145 200.03485814 -205.51351559 200.14120364 -208.46191406 200.28027344 C-209.75187035 200.33510895 -209.75187035 200.33510895 -211.06788635 200.39105225 C-216.96854552 200.81263685 -221.43177352 202.26337816 -225.20019531 207.17871094 Z M111.89746094 205.17089844 C110.65355087 205.5656839 109.40964081 205.96046936 108.1280365 206.36721802 C105.51402317 207.19750597 102.9032392 208.03701941 100.29467773 208.88427734 C96.95434525 209.96906669 93.60889584 211.03687422 90.26120853 212.09872246 C87.05467901 213.11673504 83.85106029 214.14369908 80.64746094 215.17089844 C79.44750992 215.55430389 78.2475589 215.93770935 77.01124573 216.33273315 C75.3482267 216.87306686 75.3482267 216.87306686 73.65161133 217.42431641 C72.18794884 217.89730667 72.18794884 217.89730667 70.69471741 218.37985229 C68.038885 219.27246469 68.038885 219.27246469 65.23730469 221.30371094 C66.56035866 221.30917938 66.56035866 221.30917938 67.91014099 221.3147583 C76.25161356 221.35273737 84.59269908 221.40970215 92.93389797 221.48761368 C97.22149042 221.52700278 101.50888012 221.55923297 105.79663086 221.57470703 C109.94012457 221.58993049 114.08306059 221.62447555 118.22630501 221.67201996 C119.80136307 221.68677545 121.37650078 221.69474858 122.95162773 221.69559479 C131.41266113 221.70470589 138.76776705 221.81705397 146.23730469 226.30371094 C147.28917969 226.86058594 148.34105469 227.41746094 149.42480469 227.99121094 C156.39834958 233.72501451 159.96628013 241.4545022 161.23730469 250.30371094 C161.78576383 260.14985842 158.84379987 269.04447352 152.30761719 276.50683594 C145.23525999 283.05633404 137.69518159 285.42887873 128.12589359 285.42840958 C126.27205306 285.431996 126.27205306 285.431996 124.38076121 285.43565488 C123.01222791 285.43327653 121.64369476 285.43081654 120.27516174 285.42828369 C118.81906773 285.4292701 117.36297397 285.43070737 115.9068808 285.43255687 C112.74074914 285.43561545 109.5746385 285.43550863 106.40850639 285.43300056 C101.25707317 285.42894013 96.10565638 285.43171032 90.95422363 285.43534851 C84.44499294 285.43943872 77.93576592 285.44167814 71.42653393 285.4417645 C58.63858219 285.4419672 45.85066838 285.45442457 33.06272888 285.47137451 C31.04982538 285.47398028 29.03692187 285.4765791 27.02401835 285.47917104 C23.97347843 285.48310942 20.92293853 285.48705595 17.87239866 285.49103226 C6.37220932 285.50597771 -5.12798117 285.51960318 -16.62817383 285.53173828 C-18.20510229 285.53340862 -18.20510229 285.53340862 -19.8138879 285.53511271 C-36.85851903 285.55269628 -53.90312642 285.55555618 -70.9477651 285.55388787 C-88.44284518 285.55260959 -105.93783677 285.57032407 -123.43288285 285.60490584 C-134.22687357 285.62557503 -145.02065258 285.6308788 -155.8146546 285.61657754 C-163.20889942 285.60812909 -170.60297935 285.61782205 -177.99718934 285.64188704 C-182.26533661 285.65521563 -186.53308855 285.66034704 -190.80123329 285.6437664 C-194.70786102 285.62875767 -198.61374276 285.63668772 -202.52030493 285.66293594 C-203.93410903 285.66836438 -205.347976 285.6653306 -206.76173692 285.65301898 C-215.17566746 285.31236464 -215.17566746 285.31236464 -222.57685947 288.6596489 C-225.13697415 291.75645146 -225.84460963 293.28990916 -225.76269531 297.30371094 C-224.22829942 301.50426189 -224.22829942 301.50426189 -221.02636904 304.45950663 C-218.15258864 305.53124138 -215.80041699 305.55696116 -212.73141575 305.56097984 C-211.48789642 305.56742874 -210.24437709 305.57387763 -208.96317536 305.58052194 C-207.58080159 305.57757955 -206.19842823 305.5744441 -204.8160553 305.57113647 C-203.34931197 305.57487204 -201.88257063 305.57947319 -200.41583246 305.58486712 C-196.37958323 305.59712505 -192.34341671 305.59683335 -188.30715311 305.59447837 C-183.95586449 305.59407088 -179.60460263 305.60510312 -175.25332642 305.61459351 C-166.72435605 305.63122194 -158.19541332 305.63670397 -149.6664281 305.63781826 C-142.73108496 305.63876827 -135.79575094 305.64287622 -128.86041069 305.64921951 C-109.19439463 305.66684027 -89.52840041 305.67605758 -69.8623764 305.67455857 C-68.27135579 305.6744387 -68.27135579 305.6744387 -66.64819336 305.67431641 C-65.58621593 305.67423464 -64.5242385 305.67415288 -63.43007993 305.67406864 C-46.23488524 305.67325646 -29.03977829 305.6923749 -11.84460897 305.72059314 C5.81429047 305.74934332 23.47314717 305.76313212 41.1320706 305.76140559 C51.04479491 305.76074222 60.95742733 305.76621076 70.87013054 305.78776169 C79.31427946 305.806002 87.75829491 305.81029778 96.20245504 305.79674284 C100.5078783 305.79022634 104.81304573 305.79004786 109.11844444 305.80744934 C113.06730682 305.82324485 117.0157119 305.82025098 120.96456356 305.80288108 C122.3859331 305.79982524 123.80733733 305.80338965 125.22866594 305.81460123 C141.53863888 305.93463602 155.26314297 301.39422828 167.35839844 290.27636719 C177.02046594 280.13220068 182.0319044 267.42948399 182.54980469 253.49121094 C182.1299023 237.73252121 175.53646058 225.03424048 164.23730469 214.30371094 C154.03888536 205.58406241 141.56697717 200.98149446 128.17507935 201.05355835 C122.52336402 201.53480398 117.2643833 203.41725726 111.89746094 205.17089844 Z M-200.76269531 237.30371094 C-200.76269531 248.19371094 -200.76269531 259.08371094 -200.76269531 270.30371094 C-158.47665562 270.39412881 -116.19063912 270.46574527 -73.90452194 270.50797226 C-68.91274754 270.51297511 -63.92097333 270.51815239 -58.92919922 270.5234375 C-57.43853487 270.52501136 -57.43853487 270.52501136 -55.91775608 270.52661702 C-39.82471265 270.54402429 -23.73172635 270.57556376 -7.63871682 270.61232212 C8.87305944 270.64972257 25.38480578 270.6719449 41.89662266 270.68006492 C52.08607042 270.68555454 62.2753567 270.70289576 72.46475476 270.73537681 C79.45113251 270.75651361 86.43742673 270.76291286 93.42383415 270.75771645 C97.45521646 270.75515337 101.48631651 270.75909425 105.5176487 270.78053284 C109.21042771 270.80002746 112.90273519 270.80096241 116.59553611 270.78730652 C118.56005513 270.78482165 120.52456877 270.80204757 122.489007 270.82003617 C130.70554668 270.76438674 136.5736238 269.96739183 142.61230469 263.92871094 C145.16239791 259.80932958 146.28982257 256.74795282 146.11230469 251.86621094 C144.72018336 246.19828837 143.16641271 242.69546534 138.36889648 239.23429871 C133.33470275 236.44006074 128.24055186 236.72087073 122.60839844 236.73852539 C121.45438538 236.72669724 120.30037231 236.71486908 119.11138916 236.7026825 C115.29899999 236.66981653 111.48732626 236.66683867 107.67480469 236.66699219 C105.68056235 236.65928088 103.68631981 236.65155994 101.69208241 236.64266461 C95.41087006 236.61531362 89.12989213 236.60995 82.84863281 236.61743164 C76.43024075 236.62462095 70.01296092 236.59152967 63.59480953 236.53837425 C58.04270282 236.49409906 52.49094806 236.47792198 46.93866825 236.48241013 C43.64172403 236.48469867 40.34585332 236.47379304 37.04904175 236.44133949 C20.76221656 236.29801799 6.77985709 237.82163294 -8.53898621 243.56068707 C-21.01474897 247.72930315 -33.49349121 244.64356413 -45.48982525 240.32107925 C-54.00696057 237.39294788 -61.58776957 236.75116647 -70.54907227 236.84960938 C-71.97954272 236.85074092 -73.4100155 236.85009802 -74.84048462 236.84783936 C-78.68071109 236.84670322 -82.52042611 236.87003124 -86.36053491 236.89813519 C-90.38967736 236.92333501 -94.41883472 236.92550535 -98.44804382 236.93023682 C-106.05861394 236.9426125 -113.66895107 236.97535989 -121.27941912 237.01563478 C-129.95183211 237.06052205 -138.62425689 237.08238193 -147.29675734 237.10241652 C-165.11889513 237.14409818 -182.94071401 237.21738182 -200.76269531 237.30371094 Z M-184.63769531 361.55371094 C-187.98789425 365.8892625 -190.13529067 369.80548001 -189.70019531 375.36621094 C-188.70140054 380.85958217 -186.13486815 384.26758043 -181.70019531 387.61621094 C-177.62671961 389.95629273 -174.81348173 390.42849515 -170.19296741 390.42675877 C-169.02702354 390.42874981 -167.86107967 390.43074086 -166.65980417 390.43279225 C-165.37285691 390.4298794 -164.08590965 390.42696656 -162.75996399 390.42396545 C-161.3838161 390.42440131 -160.00766829 390.42527647 -158.63152093 390.42655462 C-154.84156434 390.42879683 -151.05163587 390.42478202 -147.26168287 390.41977656 C-143.17785286 390.41546834 -139.09402451 390.41691875 -135.01019287 390.41767883 C-127.93187902 390.41820383 -120.85357437 390.41505954 -113.77526283 390.40944099 C-103.54114337 390.40132274 -93.30702837 390.39871044 -83.07290604 390.397453 C-66.46974408 390.395263 -49.86658703 390.3886043 -33.26342773 390.37915039 C-17.13256861 390.36997495 -1.00171082 390.36289476 15.12915039 390.35864258 C16.61997243 390.35824849 16.61997243 390.35824849 18.14091208 390.35784645 C23.12679589 390.35654143 28.11267972 390.35527772 33.09856355 390.35403454 C74.4781475 390.34366353 115.85772546 390.32577188 157.23730469 390.30371094 C157.23730469 379.08371094 157.23730469 367.86371094 157.23730469 356.30371094 C115.35046075 356.23588783 73.46363126 356.18217993 31.57674346 356.15051495 C26.63132172 356.14676284 21.68590009 356.14287987 16.74047852 356.13891602 C15.75593643 356.13812908 14.77139435 356.13734215 13.75701766 356.13653138 C-2.18337373 356.12347839 -18.12373265 356.09982512 -34.06410479 356.07225255 C-50.42107572 356.0441954 -66.77802965 356.02753402 -83.13502365 356.02144545 C-93.22770331 356.01732966 -103.32029119 356.00433139 -113.4129426 355.97996154 C-120.33437659 355.96410054 -127.25576317 355.95931141 -134.17721402 355.96320681 C-138.17019233 355.96512778 -142.1630103 355.96218829 -146.15596008 355.94609451 C-149.81480216 355.93145531 -153.47337664 355.93078446 -157.13223124 355.94101425 C-159.07611571 355.94287446 -161.01999721 355.92997179 -162.96383566 355.91646701 C-171.04060446 355.95779137 -178.11602531 356.44979529 -184.63769531 361.55371094 Z M76.23730469 406.30371094 C76.23730469 422.14371094 76.23730469 437.98371094 76.23730469 454.30371094 C82.36553478 450.21822421 88.32347809 446.12497053 94.08496094 441.56542969 C96.8831094 439.4779221 99.17282689 438.31752225 102.59277344 437.58496094 C107.99380096 438.65011535 111.2795169 441.68614365 115.42480469 445.17871094 C116.9993375 446.4705697 118.57608174 447.75973895 120.15527344 449.04589844 C120.84387451 449.62194824 121.53247559 450.19799805 122.24194336 450.79150391 C124.45811914 452.56729697 124.45811914 452.56729697 128.23730469 454.30371094 C128.23730469 438.46371094 128.23730469 422.62371094 128.23730469 406.30371094 C111.07730469 406.30371094 93.91730469 406.30371094 76.23730469 406.30371094 Z M144.23730469 406.30371094 C144.23730469 412.57371094 144.23730469 418.84371094 144.23730469 425.30371094 C148.54401347 425.41893204 152.8453176 425.51830909 157.15234375 425.57836914 C158.61509376 425.60341623 160.0777198 425.63746486 161.54003906 425.6809082 C163.65037688 425.7420045 165.7590522 425.77001529 167.87011719 425.79199219 C169.13742676 425.81817627 170.40473633 425.84436035 171.71044922 425.87133789 C176.38845619 425.11843977 177.94289171 423.65769124 181.23730469 420.30371094 C182.61323959 416.49965561 182.43952251 414.85714919 181.04980469 411.05371094 C179.09820549 408.09266388 178.47899158 407.47036571 175.23730469 406.30371094 C171.84490488 406.0278405 171.84490488 406.0278405 168.06542969 406.10839844 C167.04180328 406.11264328 167.04180328 406.11264328 165.99749756 406.11697388 C163.82725161 406.12812996 161.65742498 406.15322537 159.48730469 406.17871094 C158.01205025 406.18874668 156.53678931 406.1978715 155.06152344 406.20605469 C151.45316072 406.22634919 147.84569965 406.2655044 144.23730469 406.30371094 Z " fill="#6C757D" transform="translate(277.7626953125,20.6962890625)"/>
<path d="M0 0 C1.43712503 1.27744447 2.87398628 2.55520888 4.3046875 3.83984375 C7.57876241 6.08039732 11.11807292 6.35906132 15 6 C18.56922672 4.65352525 21.46163261 2.38079645 24.5625 0.1875 C27.81824168 -1.39863056 29.5770713 -1.04176091 33 0 C34.875 1.0625 34.875 1.0625 36 3 C36.63720833 7.85871353 36.62105407 9.94420808 34.125 14.1875 C28.40448937 20.16951969 20.35051702 22.70504969 12.3125 23.25 C3.62259643 23.08634833 -3.69313894 19.93586923 -10 14 C-12.52831791 10.20752314 -12.61322169 7.45050288 -12 3 C-8.96306467 -1.48309501 -4.85854172 -1.33371733 0 0 Z " fill="#6C757D" transform="translate(244,199)"/>
<path d="M0 0 C2.1953125 1.39453125 2.1953125 1.39453125 4 4 C4.56897773 7.3643238 4.51249183 10.65883852 4.4375 14.0625 C4.44458984 14.97322266 4.45167969 15.88394531 4.45898438 16.82226562 C4.39507663 23.49325105 4.39507663 23.49325105 2.65258789 25.72827148 C0.14167339 27.6605146 -1.86365244 27.8745461 -5 28 C-8.12833906 26.72022493 -9.58365132 25.81824081 -11.125 22.7890625 C-12.13621517 19.56581414 -12.26576996 16.87477188 -12.25 13.5 C-12.25515625 12.3965625 -12.2603125 11.293125 -12.265625 10.15625 C-11.99811569 6.97760996 -11.48542567 4.81240593 -10 2 C-6.2794164 -0.48038907 -4.40203429 -0.46337203 0 0 Z " fill="#6C757D" transform="translate(322,187)"/>
<path d="M0 0 C2.46094267 1.29523298 3.67412513 2.05690518 4.58984375 4.70703125 C5.11483013 7.64195511 5.17026738 10.45625628 5.1875 13.4375 C5.20167969 14.54996094 5.21585938 15.66242188 5.23046875 16.80859375 C4.99936819 20.00874902 4.45450356 22.15642037 3 25 C0.09651429 27.41957143 -1.32650931 28.02693963 -5.125 27.875 C-8.13922205 26.95762807 -9.10467589 26.43105624 -11 24 C-11.62758159 20.71799479 -11.46346507 17.39783075 -11.4375 14.0625 C-11.4674707 12.7022168 -11.4674707 12.7022168 -11.49804688 11.31445312 C-11.49318666 4.70942185 -11.49318666 4.70942185 -9.19140625 1.3984375 C-5.98631927 -0.64687648 -3.72038961 -0.4650487 0 0 Z " fill="#6C757D" transform="translate(197,187)"/>
</svg>
